<svg width="30" height="30" viewBox="0 0 30 30" fill="none" xmlns="http://www.w3.org/2000/svg">
<path d="M20.2744 11.2926C20.7234 10.8437 20.7234 10.1158 20.2744 9.66683C19.8254 9.21787 19.0976 9.21787 18.6486 9.66683L20.2744 11.2926ZM9.19624 19.1192C8.74729 19.5681 8.74729 20.296 9.19624 20.745C9.6452 21.1939 10.3731 21.1939 10.822 20.745L9.19624 19.1192ZM18.6486 20.745C19.0976 21.1939 19.8254 21.1939 20.2744 20.745C20.7234 20.296 20.7234 19.5681 20.2744 19.1192L18.6486 20.745ZM10.822 9.66682C10.3731 9.21787 9.6452 9.21787 9.19624 9.66682C8.74729 10.1158 8.74729 10.8437 9.19624 11.2926L10.822 9.66682ZM26.9534 15.2059C26.9534 21.9537 21.4832 27.4239 14.7353 27.4239V29.7232C22.753 29.7232 29.2526 23.2236 29.2526 15.2059H26.9534ZM14.7353 27.4239C7.98749 27.4239 2.51729 21.9537 2.51729 15.2059H0.218058C0.218058 23.2236 6.71766 29.7232 14.7353 29.7232V27.4239ZM2.51729 15.2059C2.51729 8.45807 7.98749 2.98787 14.7353 2.98787V0.688639C6.71766 0.688639 0.218058 7.18824 0.218058 15.2059H2.51729ZM14.7353 2.98787C21.4832 2.98787 26.9534 8.45807 26.9534 15.2059H29.2526C29.2526 7.18824 22.753 0.688639 14.7353 0.688639V2.98787ZM18.6486 9.66683L13.9224 14.393L15.5482 16.0188L20.2744 11.2926L18.6486 9.66683ZM13.9224 14.393L9.19624 19.1192L10.822 20.745L15.5482 16.0188L13.9224 14.393ZM20.2744 19.1192L15.5482 14.393L13.9224 16.0188L18.6486 20.745L20.2744 19.1192ZM15.5482 14.393L10.822 9.66682L9.19624 11.2926L13.9224 16.0188L15.5482 14.393Z" fill="white"/>
</svg>
