<svg width="30" height="30" viewBox="0 0 30 30" fill="none" xmlns="http://www.w3.org/2000/svg">
<path d="M20.0979 10.9397C20.5468 10.4907 20.5468 9.76281 20.0979 9.31386C19.6489 8.86491 18.921 8.86491 18.4721 9.31386L20.0979 10.9397ZM9.01973 18.7662C8.57078 19.2152 8.57078 19.9431 9.01973 20.392C9.46868 20.841 10.1966 20.841 10.6455 20.392L9.01973 18.7662ZM18.4721 20.392C18.921 20.841 19.6489 20.841 20.0979 20.392C20.5468 19.9431 20.5468 19.2152 20.0979 18.7662L18.4721 20.392ZM10.6455 9.31386C10.1966 8.8649 9.46868 8.8649 9.01973 9.31386C8.57078 9.76281 8.57078 10.4907 9.01973 10.9397L10.6455 9.31386ZM26.7768 14.8529C26.7768 21.6008 21.3066 27.071 14.5588 27.071V29.3702C22.5765 29.3702 29.0761 22.8706 29.0761 14.8529H26.7768ZM14.5588 27.071C7.81098 27.071 2.34078 21.6008 2.34078 14.8529H0.0415446C0.0415446 22.8706 6.54115 29.3702 14.5588 29.3702V27.071ZM2.34078 14.8529C2.34078 8.10511 7.81098 2.63491 14.5588 2.63491V0.335673C6.54115 0.335673 0.0415446 6.83527 0.0415446 14.8529H2.34078ZM14.5588 2.63491C21.3066 2.63491 26.7768 8.10511 26.7768 14.8529H29.0761C29.0761 6.83527 22.5765 0.335673 14.5588 0.335673V2.63491ZM18.4721 9.31386L13.7459 14.04L15.3717 15.6658L20.0979 10.9397L18.4721 9.31386ZM13.7459 14.04L9.01973 18.7662L10.6455 20.392L15.3717 15.6658L13.7459 14.04ZM20.0979 18.7662L15.3717 14.04L13.7459 15.6658L18.4721 20.392L20.0979 18.7662ZM15.3717 14.04L10.6455 9.31386L9.01973 10.9397L13.7459 15.6658L15.3717 14.04Z" fill="#B0FF95"/>
</svg>
