<svg width="25" height="28" viewBox="0 0 25 28" fill="none" xmlns="http://www.w3.org/2000/svg">
<path d="M2.93158 24.2231C2.40475 23.7086 1.56059 23.7186 1.04609 24.2454C0.531595 24.7722 0.541594 25.6164 1.06842 26.1309L2.93158 24.2231ZM4.0346 26V24.6667V26ZM21.2987 26V27.3333V26ZM24.2649 26.1309C24.7917 25.6164 24.8017 24.7722 24.2872 24.2454C23.7727 23.7186 22.9286 23.7086 22.4018 24.2231L24.2649 26.1309ZM14.0016 2C14.0016 1.26362 13.4047 0.666667 12.6683 0.666667C11.9319 0.666667 11.3349 1.26362 11.3349 2H14.0016ZM12.6683 17.9233L11.7628 18.902C12.2739 19.3748 13.0627 19.3748 13.5737 18.902L12.6683 17.9233ZM20.1505 12.8178C20.6911 12.3178 20.7239 11.4742 20.2238 10.9336C19.7238 10.3931 18.8802 10.3603 18.3396 10.8603L20.1505 12.8178ZM6.9969 10.8603C6.45635 10.3603 5.61277 10.3931 5.11271 10.9336C4.61265 11.4742 4.64547 12.3178 5.18601 12.8178L6.9969 10.8603ZM1.06842 26.1309C1.86038 26.9043 2.92791 27.3333 4.0346 27.3333V24.6667C3.61504 24.6667 3.21884 24.5036 2.93158 24.2231L1.06842 26.1309ZM4.0346 27.3333H21.2987V24.6667H4.0346V27.3333ZM21.2987 27.3333C22.4054 27.3333 23.473 26.9043 24.2649 26.1309L22.4018 24.2231C22.1145 24.5036 21.7183 24.6667 21.2987 24.6667V27.3333ZM11.3349 2V17.9233H14.0016V2H11.3349ZM13.5737 18.902L20.1505 12.8178L18.3396 10.8603L11.7628 16.9445L13.5737 18.902ZM5.18601 12.8178L11.7628 18.902L13.5737 16.9445L6.9969 10.8603L5.18601 12.8178Z" fill="black"/>
</svg>
