<svg width="17" height="17" viewBox="0 0 17 17" fill="none" xmlns="http://www.w3.org/2000/svg">
<path fill-rule="evenodd" clip-rule="evenodd" d="M2.25079 2.96342C2.94684 2.21126 3.89075 1.78871 4.87496 1.78871C5.85916 1.78871 6.80308 2.21126 7.49912 2.96342L8.58664 4.13798L9.67417 2.96342C10.0166 2.58022 10.4261 2.27456 10.879 2.06429C11.3318 1.85402 11.8189 1.74334 12.3117 1.73871C12.8045 1.73408 13.2933 1.83559 13.7494 2.03733C14.2056 2.23906 14.62 2.53698 14.9685 2.91369C15.317 3.2904 15.5926 3.73837 15.7792 4.23145C15.9659 4.72453 16.0598 5.25285 16.0555 5.78558C16.0512 6.31831 15.9488 6.84478 15.7543 7.33428C15.5598 7.82378 15.277 8.2665 14.9225 8.63661L8.58664 15.4864L2.25079 8.63661C1.55496 7.88422 1.16406 6.8639 1.16406 5.80002C1.16406 4.73614 1.55496 3.71581 2.25079 2.96342V2.96342Z" stroke="white" stroke-width="1.71001" stroke-linejoin="round"/>
</svg>
