<svg width="18" height="17" viewBox="0 0 18 17" fill="none" xmlns="http://www.w3.org/2000/svg">
<path fill-rule="evenodd" clip-rule="evenodd" d="M2.78302 2.96342C3.47906 2.21126 4.42298 1.78871 5.40718 1.78871C6.39139 1.78871 7.3353 2.21126 8.03135 2.96342L9.11887 4.13798L10.2064 2.96342C10.5488 2.58022 10.9584 2.27456 11.4112 2.06429C11.864 1.85402 12.3511 1.74334 12.8439 1.73871C13.3367 1.73408 13.8255 1.83559 14.2817 2.03733C14.7378 2.23906 15.1522 2.53698 15.5007 2.91369C15.8492 3.2904 16.1248 3.73837 16.3115 4.23145C16.4981 4.72453 16.592 5.25285 16.5877 5.78558C16.5834 6.31831 16.481 6.84478 16.2865 7.33428C16.092 7.82378 15.8092 8.2665 15.4547 8.63661L9.11887 15.4864L2.78302 8.63661C2.08719 7.88422 1.69629 6.8639 1.69629 5.80002C1.69629 4.73614 2.08719 3.71581 2.78302 2.96342V2.96342Z" fill="#FF6565" stroke="white" stroke-width="1.71001" stroke-linejoin="round"/>
</svg>
