<svg width="24" height="26" viewBox="0 0 24 26" fill="none" xmlns="http://www.w3.org/2000/svg">
<path d="M3.12367 16.4774C2.97313 15.946 2.42033 15.6373 1.88896 15.7879C1.35759 15.9384 1.04886 16.4912 1.19941 17.0226L3.12367 16.4774ZM2.13531 6.55378C1.88887 7.04803 2.08976 7.64848 2.58401 7.89492C3.07826 8.14136 3.67871 7.94047 3.92515 7.44622L2.13531 6.55378ZM6.17172 8.5V9.5C6.56275 9.5 6.9179 9.27208 7.08081 8.9166C7.24371 8.56112 7.18447 8.1433 6.92917 7.84711L6.17172 8.5ZM1 8.5H0C0 9.05228 0.447715 9.5 1 9.5L1 8.5ZM1 2.5L1.75745 1.84711C1.48457 1.53052 1.04356 1.41704 0.651757 1.5626C0.25995 1.70815 0 2.08203 0 2.5H1ZM2.89721 5.15033C2.52313 4.74403 1.89051 4.71791 1.4842 5.09199C1.0779 5.46608 1.05178 6.0987 1.42587 6.505L2.89721 5.15033ZM2.8506 8.05246C3.22469 8.45876 3.85731 8.48488 4.26361 8.1108C4.66992 7.73671 4.69604 7.10409 4.32195 6.69779L2.8506 8.05246ZM11.9899 2C17.0159 2 21.3333 6.78029 21.3333 13H23.3333C23.3333 5.96488 18.389 0 11.9899 0V2ZM21.3333 13C21.3333 19.2197 17.0159 24 11.9899 24V26C18.389 26 23.3333 20.0351 23.3333 13H21.3333ZM11.9899 24C7.94863 24 4.3871 20.937 3.12367 16.4774L1.19941 17.0226C2.65059 22.1448 6.86373 26 11.9899 26V24ZM3.92515 7.44622C5.57752 4.13229 8.60951 2 11.9899 2V0C7.71323 0 4.0598 2.69409 2.13531 6.55378L3.92515 7.44622ZM6.17172 7.5H1V9.5H6.17172V7.5ZM2 8.5V2.5H0V8.5H2ZM6.92917 7.84711L1.75745 1.84711L0.242547 3.15289L5.41426 9.15289L6.92917 7.84711ZM1.42587 6.505L2.8506 8.05246L4.32195 6.69779L2.89721 5.15033L1.42587 6.505Z" fill="black"/>
</svg>
