<svg width="26" height="26" viewBox="0 0 26 26" fill="none" xmlns="http://www.w3.org/2000/svg">
<path d="M20.3624 18.6588C19.8426 18.156 19.0135 18.1697 18.5107 18.6895C18.0078 19.2093 18.0215 20.0383 18.5413 20.5412L20.3624 18.6588ZM23.0895 24.9412C23.6093 25.444 24.4383 25.4303 24.9412 24.9105C25.444 24.3907 25.4303 23.5617 24.9105 23.0588L23.0895 24.9412ZM21.2238 12.2667C21.2238 17.2136 17.2136 21.2238 12.2667 21.2238V23.8429C18.66 23.8429 23.8429 18.66 23.8429 12.2667H21.2238ZM12.2667 21.2238C7.31977 21.2238 3.30952 17.2136 3.30952 12.2667H0.690476C0.690476 18.66 5.87331 23.8429 12.2667 23.8429V21.2238ZM3.30952 12.2667C3.30952 7.31977 7.31977 3.30952 12.2667 3.30952V0.690476C5.87331 0.690476 0.690476 5.87331 0.690476 12.2667H3.30952ZM12.2667 3.30952C17.2136 3.30952 21.2238 7.31977 21.2238 12.2667H23.8429C23.8429 5.87331 18.66 0.690476 12.2667 0.690476V3.30952ZM18.5413 20.5412L23.0895 24.9412L24.9105 23.0588L20.3624 18.6588L18.5413 20.5412Z" fill="white" fill-opacity="0.37"/>
</svg>
